<svg width="171" height="74" viewBox="0 0 171 74" fill="none" xmlns="http://www.w3.org/2000/svg">
<path d="M34.5993 8.61896C35.0078 8.62087 35.4161 8.61897 35.8245 8.61671C43.4664 8.60921 50.6682 11.9689 56.0736 17.3064C60.2277 21.5037 63.0999 26.9847 64.1859 32.8029C64.2403 33.0795 64.2403 33.0795 64.2958 33.3617C64.8602 36.7761 64.714 40.3913 64.0754 43.7829C64.0164 44.1202 63.9781 44.461 63.9428 44.8016C63.7994 45.8155 63.5127 46.3519 62.7008 46.9959C62.1546 47.3885 61.5865 47.733 61.0029 48.0663C60.8902 48.1313 60.7776 48.1963 60.6616 48.2632C55.9644 50.9139 50.6954 51.6281 45.4745 50.2516C44.5112 49.9626 43.5895 49.6076 42.6672 49.2089C42.5464 49.1569 42.4255 49.1049 42.3009 49.0514C41.7258 48.7936 41.2453 48.5631 40.8436 48.0663C41.0333 47.9968 41.2229 47.9272 41.4183 47.8556C41.6986 47.7491 41.9786 47.6418 42.2583 47.5339C42.4206 47.4714 42.5829 47.409 42.7501 47.3446C47.0743 45.6144 50.0429 42.5742 51.9207 38.3124C52.6001 36.4559 52.7906 34.5448 52.78 32.581C52.7789 32.3568 52.7777 32.1325 52.7766 31.9015C52.6971 27.7981 51.0129 24.2833 48.1871 21.3441C45.0049 18.3477 40.8979 16.9061 36.5761 16.9695C32.2132 17.1104 28.4539 19.0139 25.4589 22.1539C24.1944 23.6206 23.1797 25.3056 22.1155 26.9199C21.3894 28.0204 20.6517 29.11 19.8886 30.185C19.2114 31.139 18.5507 32.1005 17.9075 33.0781C17.3638 33.9014 16.8073 34.7159 16.2524 35.5317C16.1383 35.6995 16.0241 35.8674 15.9065 36.0403C15.6711 36.3863 15.4357 36.7323 15.2003 37.0782C14.6406 37.9009 14.0816 38.7241 13.5225 39.5472C13.3024 39.8712 13.0823 40.1952 12.8622 40.5192C12.4107 41.1837 11.9594 41.8484 11.5083 42.5131C10.2094 44.4264 8.90746 46.3375 7.59854 48.2438C6.42074 47.0617 6.28115 44.5169 6.00702 42.9194C5.96156 42.671 5.96156 42.671 5.91519 42.4176C5.65704 40.9077 5.59158 39.4359 5.59809 37.9055C5.59841 37.7847 5.59873 37.664 5.59906 37.5395C5.60748 35.6635 5.73018 33.9161 6.18385 32.0929C6.24476 31.8247 6.30554 31.5563 6.36622 31.288C7.49611 26.4898 9.7185 22.0701 13.077 18.4573C13.3901 18.1194 13.6841 17.7738 13.9757 17.4173C17.4184 13.3613 22.7358 10.7888 27.7578 9.37517C27.9639 9.31592 28.1699 9.25666 28.3822 9.19561C30.4359 8.69896 32.4986 8.60736 34.5993 8.61896Z" fill="white"/>
<path d="M36.9818 23.3286C37.1125 23.3289 37.2432 23.3292 37.3779 23.3295C39.6924 23.3806 41.958 24.3299 43.6794 25.8799C45.7931 28.0974 46.4379 30.5971 46.3914 33.5748C46.2911 36.0733 45.0532 38.0639 43.2926 39.779C41.6105 41.204 39.4704 41.9239 37.2912 41.9199C37.1444 41.9199 36.9976 41.9199 36.8463 41.9198C35.4524 41.8942 34.1068 41.6508 32.8862 40.9313C32.3947 40.7292 32.1495 40.7789 31.6546 40.966C31.1061 41.5593 30.6859 42.245 30.2399 42.9183C30.1451 43.0487 30.0503 43.1791 29.9526 43.3134C29.3577 44.1649 29.2079 44.719 29.3557 45.758C29.8039 46.6371 30.3268 47.3764 30.9694 48.1207C31.0977 48.2701 31.0977 48.2701 31.2286 48.4226C35.3853 53.2144 40.8634 55.9787 47.0393 57.1169C47.2153 57.1496 47.3913 57.1823 47.5726 57.216C48.6324 57.3603 49.7075 57.344 50.775 57.3498C50.8918 57.3504 51.0086 57.3511 51.129 57.3517C53.1261 57.3561 55.0167 57.1375 56.9601 56.6656C57.3646 56.5678 57.7713 56.4853 58.1799 56.4069C54.0817 62.209 47.3047 66.0071 40.4128 67.3145C32.7411 68.4997 24.6647 67.0935 18.2724 62.5217C17.0698 61.6255 15.9398 60.6376 14.8552 59.6016C14.7583 59.5091 14.6613 59.4166 14.5614 59.3213C11.5025 56.3846 11.5025 56.3846 10.9648 55.1645C11.1436 54.3052 11.7716 53.5529 12.258 52.8351C12.352 52.6949 12.4461 52.5547 12.543 52.4103C12.8411 51.9669 13.1406 51.5245 13.4405 51.0825C13.5335 50.9454 13.6266 50.8083 13.7224 50.667C14.1921 49.9755 14.6631 49.2849 15.135 48.5949C15.7806 47.6507 16.4232 46.7044 17.0657 45.758C17.8897 44.5444 18.7147 43.3314 19.5414 42.1196C20.8113 40.2578 22.0773 38.3934 23.3433 36.5289C23.7928 35.867 24.2422 35.2051 24.6917 34.5433C24.8011 34.3822 24.9105 34.2211 25.0232 34.0551C25.5559 33.2709 26.0892 32.4871 26.6238 31.7043C26.7239 31.5576 26.824 31.411 26.9271 31.2599C27.1216 30.9752 27.3162 30.6906 27.5109 30.4061C27.9139 29.8162 28.3147 29.2256 28.7023 28.6254C30.6357 25.6353 33.2325 23.32 36.9818 23.3286Z" fill="white"/>
<path d="M143.036 16.6022C143.211 16.6005 143.386 16.5988 143.566 16.5971C143.848 16.5973 143.848 16.5973 144.137 16.5976C144.427 16.5964 144.427 16.5964 144.724 16.5953C145.134 16.5943 145.544 16.5942 145.954 16.5949C146.582 16.5955 147.21 16.5913 147.838 16.5868C148.236 16.5864 148.635 16.5863 149.033 16.5865C149.221 16.5849 149.409 16.5832 149.603 16.5815C149.778 16.5826 149.953 16.5838 150.134 16.5849C150.288 16.5848 150.442 16.5847 150.6 16.5846C151.117 16.6669 151.358 16.8102 151.725 17.1834C151.957 18.2034 151.653 19.3782 151.454 20.3885C151.426 20.5357 151.399 20.6828 151.371 20.8345C151.255 21.4564 151.135 22.0778 151.016 22.6991C150.325 25.2965 150.325 25.2965 150.675 27.7831C151.194 28.1269 151.719 28.0846 152.321 28.082C152.511 28.0848 152.511 28.0848 152.706 28.0878C153.112 28.0939 153.518 28.0966 153.924 28.0986C154.458 28.1012 154.992 28.1072 155.526 28.1152C155.709 28.1144 155.709 28.1144 155.897 28.1136C156.441 28.1221 156.808 28.1617 157.286 28.433C157.56 28.7198 157.56 28.7198 157.616 29.1205C157.546 29.7575 157.471 30.3924 157.383 31.027C157.361 31.2013 157.339 31.3756 157.317 31.5552C157.241 32.149 157.158 32.7416 157.074 33.3343C157.036 33.6268 157.036 33.6268 156.997 33.9251C156.968 34.1108 156.94 34.2966 156.911 34.488C156.887 34.6545 156.863 34.8211 156.839 34.9927C156.612 35.651 156.35 35.9364 155.792 36.3515C155.277 36.4723 154.781 36.4671 154.254 36.4583C154.108 36.4597 153.961 36.4611 153.81 36.4626C153.343 36.4667 152.877 36.465 152.41 36.4624C151.942 36.4618 151.474 36.4624 151.006 36.4661C150.715 36.4683 150.425 36.4678 150.134 36.4644C149.394 36.4622 149.394 36.4622 148.727 36.7455C148.497 37.1378 148.414 37.4684 148.334 37.917C148.301 38.0935 148.268 38.27 148.234 38.4519C148.201 38.6446 148.167 38.8374 148.133 39.0359C148.096 39.2363 148.06 39.4367 148.022 39.6432C147.942 40.0824 147.863 40.5218 147.785 40.9613C147.651 41.7176 147.511 42.4729 147.371 43.2283C147.298 43.6211 147.226 44.014 147.154 44.4069C147.107 44.662 147.06 44.9171 147.013 45.1722C146.13 48.807 146.13 48.807 146.729 52.2806C147.299 52.8527 147.632 53.0193 148.446 53.082C148.789 53.0806 148.789 53.0806 149.138 53.0792C149.366 53.0802 149.593 53.0811 149.828 53.082C150.466 53.0363 150.948 52.8912 151.548 52.6799C152.685 52.756 152.685 52.756 153.139 53.2124C153.338 53.8252 153.464 54.4582 153.604 55.087C153.644 55.2583 153.685 55.4295 153.727 55.6059C154.215 57.7676 154.215 57.7676 154.024 58.7143C153.379 59.5201 152.323 59.7588 151.371 60.0676C151.217 60.1207 151.063 60.1738 150.905 60.2285C148.813 60.9212 146.744 61.0829 144.552 61.077C144.335 61.0799 144.119 61.0828 143.896 61.0857C141.494 61.087 139.134 60.6241 137.335 58.9251C136.719 58.2652 136.326 57.594 135.986 56.762C135.917 56.6156 135.848 56.4692 135.776 56.3183C135.575 55.6978 135.499 55.1019 135.456 54.4547C135.442 54.2799 135.428 54.1051 135.414 53.9251C135.316 51.4136 135.841 48.9487 136.274 46.486C136.339 46.1198 136.403 45.7535 136.466 45.3871C136.682 44.1447 136.9 42.9029 137.121 41.6614C137.31 40.5974 137.497 39.533 137.681 38.4681C137.705 38.3311 137.729 38.194 137.754 38.0527C137.803 37.77 137.852 37.4873 137.901 37.2046C138.289 34.9707 138.681 32.7377 139.08 30.5057C139.137 30.1852 139.137 30.1852 139.195 29.8583C139.35 28.989 139.506 28.1196 139.661 27.2503C140.198 24.2516 140.198 24.2516 140.704 21.2475C140.736 21.0545 140.736 21.0545 140.768 20.8577C140.859 20.294 140.949 19.7301 141.036 19.1658C141.065 18.9793 141.095 18.7927 141.126 18.6005C141.15 18.4444 141.173 18.2883 141.198 18.1275C141.444 17.0438 141.913 16.6082 143.036 16.6022Z" fill="white"/>
<path d="M101.919 28.1182C102.285 28.6491 102.206 28.9498 102.113 29.5695C101.985 30.2116 101.789 30.8224 101.578 31.4411C101.51 31.643 101.51 31.643 101.441 31.849C101.346 32.131 101.25 32.4127 101.154 32.6942C101.007 33.1248 100.863 33.5566 100.721 33.9886C100.627 34.2636 100.534 34.5385 100.44 34.8133C100.376 35.0063 100.376 35.0063 100.312 35.2032C100.069 35.8977 99.8802 36.3723 99.2054 36.7066C98.4469 36.6679 97.7626 36.5229 97.0281 36.3406C95.0847 35.9023 93.4155 36.1925 91.723 37.2502C90.5681 38.5172 90.0364 39.9737 89.7668 41.6429C89.7328 41.8347 89.6988 42.0264 89.6638 42.224C89.5635 42.7944 89.4666 43.3652 89.3706 43.9362C89.2419 44.6973 89.1089 45.4575 88.9766 46.2179C88.9175 46.5579 88.8585 46.8979 88.7995 47.2379C88.7696 47.4103 88.7397 47.5828 88.7088 47.7604C88.556 48.6411 88.4032 49.5218 88.2506 50.4026C88.2202 50.5774 88.1899 50.7523 88.1586 50.9324C87.981 51.9583 87.8066 52.9847 87.6347 54.0116C87.5293 54.6373 87.421 55.2625 87.3119 55.8876C87.2617 56.1796 87.2126 56.4718 87.1649 56.7643C87.099 57.1675 87.0288 57.5697 86.9575 57.972C86.9192 58.1979 86.881 58.4238 86.8416 58.6566C86.6001 59.4009 86.4154 59.6928 85.7659 60.1343C85.1123 60.2589 84.4724 60.2503 83.809 60.2397C83.6196 60.2397 83.4302 60.2397 83.235 60.2397C82.8353 60.2388 82.4356 60.2357 82.036 60.2305C81.4239 60.2231 80.8122 60.2232 80.2001 60.2245C79.8115 60.2226 79.4229 60.2203 79.0344 60.2175C78.8513 60.2175 78.6682 60.2174 78.4795 60.2174C78.3089 60.2146 78.1384 60.2118 77.9626 60.2089C77.8129 60.2074 77.6632 60.2059 77.509 60.2043C76.9945 60.1161 76.755 59.9799 76.3936 59.6019C76.1639 58.3875 76.4492 57.0497 76.6658 55.8463C76.7085 55.5975 76.7085 55.5975 76.7521 55.3437C76.8447 54.8068 76.9396 54.2703 77.0346 53.7339C77.1003 53.3562 77.1658 52.9786 77.2312 52.6009C77.3928 51.6694 77.5563 50.7382 77.7205 49.8071C77.8209 49.236 77.9204 48.6647 78.0195 48.0933C78.1218 47.5035 78.2248 46.9137 78.3277 46.324C78.3478 46.2087 78.3679 46.0935 78.3886 45.9747C78.6381 44.5444 78.8978 43.1164 79.1686 41.69C79.351 40.7281 79.5308 39.7658 79.7093 38.8032C79.7447 38.6124 79.7801 38.4217 79.8165 38.2252C80.2914 35.6393 80.6483 33.0946 80.7231 30.4648C80.7291 30.2647 80.7351 30.0645 80.7413 29.8583C80.7441 29.6029 80.7441 29.6029 80.7471 29.3422C80.833 28.7752 80.9004 28.5575 81.345 28.1875C81.8821 28.0803 82.4119 28.0881 82.9579 28.0932C83.1164 28.0925 83.2749 28.0918 83.4382 28.0911C83.7734 28.0907 84.1086 28.092 84.4438 28.0949C84.9566 28.0987 85.469 28.095 85.9818 28.0904C86.3074 28.0909 86.6331 28.0918 86.9588 28.0932C87.1888 28.091 87.1888 28.091 87.4233 28.0888C88.4801 28.1053 88.4801 28.1053 89.0429 28.5067C89.3949 29.0363 89.4314 29.5129 89.4794 30.1398C90.5238 30.2893 90.5238 30.2893 91.444 29.8673C91.698 29.6186 91.951 29.3687 92.2031 29.1179C94.5426 27.0911 99.2451 26.2755 101.919 28.1182Z" fill="white"/>
<path d="M107.156 28.122C107.424 28.1203 107.424 28.1203 107.698 28.1187C107.891 28.1203 108.083 28.1219 108.282 28.1236C108.48 28.1235 108.679 28.1234 108.883 28.1233C109.302 28.1238 109.721 28.1255 110.14 28.1284C110.783 28.1326 111.426 28.1321 112.068 28.1309C112.475 28.1319 112.882 28.1331 113.289 28.1347C113.482 28.1345 113.675 28.1344 113.873 28.1342C114.141 28.1367 114.141 28.1367 114.415 28.1393C114.573 28.1402 114.73 28.141 114.892 28.1418C115.295 28.1881 115.295 28.1881 115.825 28.543C116.048 29.5856 115.974 30.4438 115.766 31.4791C115.739 31.6247 115.711 31.7703 115.683 31.9204C115.624 32.2368 115.563 32.553 115.502 32.8691C115.333 33.7416 115.171 34.6154 115.009 35.4891C114.974 35.6738 114.94 35.8586 114.904 36.0489C114.506 38.1865 114.15 40.3308 113.792 42.4754C113.239 45.7802 112.663 49.08 112.054 52.375C111.808 53.7102 111.566 55.0438 111.367 56.387C111.337 56.5881 111.307 56.7893 111.275 56.9965C111.224 57.3483 111.176 57.7005 111.131 58.0532C111.109 58.2018 111.088 58.3505 111.065 58.5036C111.049 58.6277 111.033 58.7518 111.017 58.8797C110.78 59.4893 110.519 59.7468 109.99 60.1349C109.34 60.2662 108.7 60.2593 108.039 60.2528C107.85 60.2536 107.661 60.2545 107.466 60.2554C107.067 60.256 106.668 60.2543 106.27 60.2506C105.659 60.2459 105.05 60.2506 104.439 60.2562C104.051 60.2557 103.663 60.2545 103.276 60.2528C103.093 60.2546 102.911 60.2564 102.723 60.2582C101.926 60.2451 101.446 60.2067 100.75 59.7948C100.291 58.9826 100.452 58.365 100.617 57.4727C100.66 57.1916 100.703 56.9105 100.745 56.6294C100.794 56.3359 100.844 56.0425 100.894 55.7492C100.935 55.5073 100.935 55.5073 100.977 55.2606C101.067 54.7333 101.157 54.2061 101.247 53.679C101.311 53.3048 101.375 52.9305 101.439 52.5563C101.88 49.9749 102.342 47.3976 102.815 44.8218C103.179 42.8348 103.531 40.8461 103.865 38.8537C103.918 38.5387 103.918 38.5387 103.972 38.2175C104.143 37.193 104.314 36.1684 104.482 35.1434C104.763 33.4486 105.051 31.7563 105.406 30.0752C105.445 29.8787 105.445 29.8787 105.486 29.6783C105.729 28.5741 105.998 28.1212 107.156 28.122Z" fill="white"/>
<path d="M124.145 28.0983C124.413 28.0958 124.413 28.0958 124.687 28.0933C124.879 28.0953 125.071 28.0972 125.268 28.0993C125.466 28.099 125.664 28.0988 125.868 28.0985C126.286 28.0988 126.704 28.1009 127.122 28.1045C127.764 28.1097 128.405 28.1082 129.046 28.1059C129.452 28.107 129.858 28.1085 130.264 28.1104C130.456 28.1099 130.649 28.1094 130.847 28.1088C131.114 28.1122 131.114 28.1122 131.387 28.1156C131.622 28.1171 131.622 28.1171 131.862 28.1185C132.351 28.2022 132.509 28.317 132.794 28.7198C132.932 30.2035 132.604 31.6658 132.352 33.1236C132.304 33.4052 132.257 33.6868 132.209 33.9685C131.811 36.3086 131.386 38.6438 130.958 40.9787C130.482 43.5818 130.029 46.188 129.589 48.7975C129.53 49.1477 129.471 49.4978 129.412 49.848C129.078 51.8204 129.078 51.8204 128.747 53.7933C128.628 54.5082 128.507 55.2229 128.385 55.9374C128.341 56.1949 128.298 56.4526 128.255 56.7103C128.197 57.0608 128.137 57.411 128.077 57.7611C128.044 57.9552 128.012 58.1493 127.978 58.3494C127.83 58.9443 127.618 59.4265 127.312 59.9567C126.882 60.1726 126.599 60.1602 126.118 60.1656C125.856 60.169 125.856 60.169 125.589 60.1725C125.305 60.1745 125.305 60.1745 125.015 60.1765C124.724 60.1786 124.724 60.1786 124.427 60.1808C124.016 60.1833 123.604 60.1852 123.193 60.1866C122.564 60.1896 121.934 60.1974 121.305 60.2052C120.906 60.207 120.507 60.2086 120.108 60.2098C119.919 60.2129 119.73 60.216 119.536 60.2192C118.246 60.2154 118.246 60.2154 117.638 59.8344C116.778 58.2934 117.925 54.9641 118.216 53.29C118.28 52.919 118.344 52.548 118.407 52.1769C118.854 49.5796 119.321 46.986 119.796 44.3937C120.337 41.4405 120.844 38.4822 121.337 35.5206C121.471 34.7169 121.608 33.9137 121.747 33.1108C121.805 32.7754 121.861 32.4398 121.917 32.104C122.002 31.589 122.091 31.0747 122.181 30.5605C122.207 30.4038 122.232 30.247 122.258 30.0855C122.284 29.9399 122.31 29.7943 122.337 29.6443C122.359 29.5168 122.381 29.3892 122.403 29.2579C122.728 28.3878 123.252 28.0985 124.145 28.0983Z" fill="white"/>
<path d="M133.517 14.7553C134.294 15.3616 134.833 16.0479 135.102 17.0057C135.312 18.7385 135.041 20.3275 134.019 21.7534C132.94 23.0416 131.485 23.9858 129.793 24.137C129.378 24.1621 128.964 24.175 128.548 24.1827C128.415 24.1867 128.281 24.1906 128.143 24.1947C126.954 24.1898 126.07 23.8257 125.157 23.0651C124.168 21.9158 123.872 20.8863 123.919 19.3754C124.097 17.6399 124.832 16.3645 126.142 15.2288C128.371 13.5508 131.118 13.1935 133.517 14.7553Z" fill="white"/>
<path d="M116.363 14.5218C117.353 15.2979 118.05 16.168 118.208 17.453C118.21 19.5333 117.882 20.9654 116.436 22.5002C114.646 24.0215 112.604 24.2664 110.348 24.1445C109.217 24.0201 108.493 23.3851 107.797 22.5307C107.055 21.4274 106.83 20.2685 106.99 18.9589C107.369 17.2158 108.319 15.9485 109.742 14.8969C111.759 13.6224 114.239 13.2446 116.363 14.5218Z" fill="white"/>
</svg>
